HIERARCHY
ROOT Hips
{
    OFFSET 0.000000 0.000000 0.000000
    CHANNELS 6 Xposition Yposition Zposition Zrotation Xrotation Yrotation
    JOINT Spine
    {
        OFFSET -0.000000 7.246840 0.000000
        CHANNELS 3 Zrotation Xrotation Yrotation
        JOINT Spine1
        {
            OFFSET -0.000000 20.289354 0.000000
            CHANNELS 3 Zrotation Xrotation Yrotation
            JOINT Neck
            {
                OFFSET -0.000000 20.206032 1.836912
                CHANNELS 3 Zrotation Xrotation Yrotation
                JOINT Head
                {
                    OFFSET -0.000000 12.372654 -1.767522
                    CHANNELS 3 Zrotation Xrotation Yrotation
                    End Site
                    {
                        OFFSET -0.000000 22.094025 0.000000
                    }
                }
            }
            JOINT LeftShoulder
            {
                OFFSET 3.465871 17.201674 -0.568930
                CHANNELS 3 Zrotation Xrotation Yrotation
                JOINT LeftArm
                {
                    OFFSET 14.070313 0.000000 0.000000
                    CHANNELS 3 Zrotation Xrotation Yrotation
                    JOINT LeftForeArm
                    {
                        OFFSET 26.549477 0.000000 0.000000
                        CHANNELS 3 Zrotation Xrotation Yrotation
                        JOINT LeftHand
                        {
                            OFFSET 18.880413 0.000000 0.000000
                            CHANNELS 3 Zrotation Xrotation Yrotation
                            End Site
                            {
                                OFFSET 13.256415 0.000000 0.000000
                            }
                        }
                    }
                }
            }
            JOINT RightShoulder
            {
                OFFSET -3.526370 17.201674 -0.568930
                CHANNELS 3 Zrotation Xrotation Yrotation
                JOINT RightArm
                {
                    OFFSET -14.070313 0.000000 0.000000
                    CHANNELS 3 Zrotation Xrotation Yrotation
                    JOINT RightForeArm
                    {
                        OFFSET -26.549477 0.000000 0.000000
                        CHANNELS 3 Zrotation Xrotation Yrotation
                        JOINT RightHand
                        {
                            OFFSET -18.880413 0.000000 0.000000
                            CHANNELS 3 Zrotation Xrotation Yrotation
                            End Site
                            {
                                OFFSET -13.256415 0.000000 0.000000
                            }
                        }
                    }
                }
            }
        }
    }
    JOINT LeftUpLeg
    {
        OFFSET 8.837609 0.000000 0.000000
        CHANNELS 3 Zrotation Xrotation Yrotation
        JOINT LeftLeg
        {
            OFFSET -0.000000 -41.345005 0.000000
            CHANNELS 3 Zrotation Xrotation Yrotation
            JOINT LeftFoot
            {
                OFFSET -0.000000 -35.500874 0.000000
                CHANNELS 3 Zrotation Xrotation Yrotation
                JOINT LeftToeBase
                {
                    OFFSET -0.000000 -5.744446 13.256415
                    CHANNELS 3 Zrotation Xrotation Yrotation
                    End Site
                    {
                        OFFSET -0.000000 0.000000 3.535044
                    }
                }
            }
        }
    }
    JOINT RightUpLeg
    {
        OFFSET -8.837609 0.000000 0.000000
        CHANNELS 3 Zrotation Xrotation Yrotation
        JOINT RightLeg
        {
            OFFSET -0.000000 -41.345005 0.000000
            CHANNELS 3 Zrotation Xrotation Yrotation
            JOINT RightFoot
            {
                OFFSET -0.000000 -35.500874 0.000000
                CHANNELS 3 Zrotation Xrotation Yrotation
                JOINT RightToeBase
                {
                    OFFSET -0.000000 -5.744446 13.256415
                    CHANNELS 3 Zrotation Xrotation Yrotation
                    End Site
                    {
                        OFFSET -0.000000 0.000000 3.535044
                    }
                }
            }
        }
    }
}
MOTION
Frames:    13
Frame Time:    0.010000
6.163555    82.694260    -6.151488    4.049530    5.148990    -2.880857    0.750149    -13.666798    1.508310    -5.996876    -0.047775    1.415933    4.904690    33.281548    -1.619516    -0.537458    -7.510268    -0.963768    22.329195    3.569089    7.410596    -43.137871    0.695787    -7.324324    4.934721    0.947850    1.536976    -9.682308    1.600456    -8.473875    -17.824299    -1.490925    9.290217    18.289307    -1.906546    8.234039    0.347022    3.277442    -2.781156    -1.756745    3.071727    13.920104    -6.638416    5.034511    4.273222    -1.022477    -10.118888    -0.176864    5.906770    0.970970    0.571916    -1.067803    -1.413202    1.507671    -7.680288    4.169651    -1.043965    8.451394    -11.567904    -0.300565    -3.191920    1.583410    -9.093593    0.174374    -2.396050    -0.321100    
6.177842    82.692970    -6.142530    4.052487    5.141153    -2.898000    0.819375    -13.657238    1.527089    -6.080081    -0.051959    1.426228    4.987519    33.316196    -1.630672    -0.581205    -7.553685    -0.968772    22.360630    3.611190    7.455094    -43.174103    0.649661    -7.402266    4.941458    1.015994    1.592815    -9.705392    1.670115    -8.500484    -17.866940    -1.523831    9.303065    18.132221    -1.952961    8.258776    0.276804    3.187414    -2.709322    -1.578544    3.001737    13.903912    -6.647060    5.043703    4.280576    -1.020586    -10.110405    -0.237069    5.899536    0.972554    0.632556    -1.074490    -1.429949    1.517267    -7.696992    4.184561    -1.026235    8.452796    -11.578939    -0.312984    -3.190899    1.584144    -9.073488    0.165126    -2.376060    -0.304001    
6.187969    82.692268    -6.136704    4.052693    5.130728    -2.923982    0.878396    -13.630495    1.550870    -6.148945    -0.078026    1.441731    5.048135    33.355888    -1.639923    -0.576314    -7.590900    -0.965057    22.374422    3.638341    7.440387    -43.172840    0.633495    -7.400949    4.950965    1.076002    1.600617    -9.756194    1.728989    -8.448740    -17.911814    -1.565657    9.322257    17.969055    -2.014333    8.277978    0.207092    3.060804    -2.627002    -1.310278    2.906306    13.875128    -6.658933    5.049489    4.321476    -1.019130    -10.093547    -0.241025    5.899961    0.955229    0.619555    -1.068678    -1.413622    1.508910    -7.701533    4.188331    -1.030970    8.445601    -11.568029    -0.305303    -3.185112    1.579344    -9.063499    0.151523    -2.365157    -0.278923    
6.200907    82.691063    -6.129411    4.049335    5.127703    -2.936570    0.984980    -13.597707    1.581553    -6.312397    -0.135758    1.456657    5.185274    33.395607    -1.671353    -0.587281    -7.605404    -0.974583    22.485294    3.656718    7.425320    -43.201874    0.676152    -7.404403    4.953406    1.146442    1.634738    -9.813284    1.801399    -8.439538    -17.935600    -1.564371    9.317213    17.814045    -1.989529    8.288368    0.099841    2.844439    -2.490644    -1.118310    2.710052    13.941346    -6.664668    5.055697    4.329226    -1.022272    -10.090592    -0.228083    5.914537    0.965250    0.631179    -1.060137    -1.437058    1.497066    -7.710541    4.197556    -1.018523    8.456872    -11.575878    -0.293097    -3.169407    1.580480    -9.057233    0.183043    -2.378318    -0.336997    
6.211003    82.691177    -6.123959    4.051036    5.119739    -2.949798    1.050432    -13.576950    1.604129    -6.408849    -0.151732    1.470573    5.276496    33.422600    -1.693999    -0.587050    -7.632007    -0.981110    22.517237    3.644443    7.395359    -43.190052    0.693401    -7.371585    4.951066    1.220803    1.644834    -9.813433    1.872395    -8.405682    -17.971512    -1.585353    9.313936    17.643387    -1.926270    8.279244    -0.074778    2.577708    -2.285530    -0.698954    2.491197    13.882184    -6.666718    5.066083    4.319806    -1.036893    -10.087586    -0.188980    5.915273    0.962110    0.596056    -1.073106    -1.458891    1.515584    -7.715902    4.205615    -1.019993    8.446524    -11.576688    -0.281556    -3.162650    1.580025    -9.070315    0.170758    -2.351339    -0.314283    
6.220926    82.691483    -6.119950    4.050957    5.119768    -2.958714    1.109308    -13.561255    1.627632    -6.493408    -0.169899    1.486129    5.357547    33.434643    -1.720537    -0.578929    -7.635378    -0.992390    22.548252    3.674742    7.401351    -43.188400    0.743134    -7.421072    4.963938    1.242000    1.675016    -9.796385    1.891853    -8.417384    -18.021605    -1.608360    9.294651    17.491705    -1.918621    8.281991    -0.305104    2.457396    -2.143688    -0.193210    2.427952    14.013638    -6.670144    5.068182    4.330564    -1.037666    -10.088560    -0.259546    5.937240    0.951731    0.666729    -1.081103    -1.376610    1.526104    -7.721520    4.202511    -1.026439    8.451117    -11.569628    -0.316605    -3.165458    1.581298    -9.019991    0.160718    -2.372361    -0.295874    
6.230303    82.691574    -6.114530    4.050957    5.123306    -2.958120    1.180668    -13.544488    1.648228    -6.598690    -0.193159    1.496873    5.418341    33.454697    -1.733704    -0.540686    -7.661582    -0.986776    22.570982    3.670894    7.387310    -43.154865    0.789956    -7.411796    4.947601    1.251253    1.674761    -9.751341    1.900152    -8.442682    -18.070499    -1.593473    9.251315    17.346241    -1.902632    8.322972    -0.538295    2.195176    -2.002870    0.266784    2.218763    14.103874    -6.671975    5.068811    4.332278    -1.043398    -10.086217    -0.268073    5.904521    0.956638    0.666336    -1.066677    -1.448279    1.506405    -7.729950    4.205731    -1.020139    8.445051    -11.575665    -0.265782    -3.147203    1.580678    -9.086191    0.170074    -2.364026    -0.313067    
6.238053    82.692543    -6.112557    4.048990    5.125223    -2.954141    1.226599    -13.529508    1.661674    -6.677352    -0.206239    1.504161    5.509493    33.451122    -1.767033    -0.537315    -7.659450    -1.005254    22.607136    3.691757    7.383829    -43.155426    0.797317    -7.432631    4.940022    1.240301    1.673785    -9.664735    1.887129    -8.492053    -18.103725    -1.590469    9.221752    17.162712    -1.758033    8.317024    -0.734831    1.806988    -1.780965    0.650724    1.876683    14.222587    -6.672818    5.065441    4.359552    -1.055235    -10.082937    -0.263340    5.912362    0.947123    0.632865    -1.057774    -1.454397    1.493888    -7.729418    4.205423    -1.028437    8.442674    -11.578210    -0.289207    -3.141747    1.581463    -9.058307    0.158347    -2.354521    -0.291450    
6.244115    82.693520    -6.111109    4.046625    5.132307    -2.949213    1.265715    -13.526718    1.674140    -6.744136    -0.206883    1.511822    5.606170    33.482224    -1.787385    -0.549555    -7.727830    -1.010917    22.645668    3.689405    7.390080    -43.163300    0.823143    -7.449215    4.937691    1.219632    1.667565    -9.607298    1.865961    -8.533283    -18.165426    -1.598549    9.183901    17.029240    -1.705292    8.337466    -0.896206    1.557655    -1.611223    0.874755    1.655263    14.364288    -6.670516    5.063521    4.347959    -1.059268    -10.093934    -0.254100    5.904219    0.946721    0.629106    -1.056796    -1.433369    1.492315    -7.731625    4.197880    -1.040056    8.445527    -11.573517    -0.308494    -3.135497    1.587767    -9.026757    0.176311    -2.375347    -0.324592    
6.248492    82.693520    -6.112071    4.043114    5.138872    -2.932103    1.285529    -13.517472    1.677860    -6.787159    -0.215607    1.512718    5.683723    33.506554    -1.823056    -0.550276    -7.776617    -1.033541    22.671009    3.706950    7.380327    -43.153538    0.826587    -7.470696    4.922536    1.225857    1.665234    -9.575865    1.871413    -8.548002    -18.224709    -1.600275    9.133626    16.879658    -1.606284    8.363885    -1.016581    1.303776    -1.391194    1.138347    1.435164    14.396315    -6.664062    5.055754    4.361191    -1.077772    -10.090654    -0.274853    5.934029    0.941653    0.615983    -1.066451    -1.408633    1.505719    -7.730906    4.192648    -1.043936    8.450174    -11.567504    -0.312886    -3.142990    1.583284    -9.043885    0.159278    -2.367113    -0.293205    
6.254177    82.694794    -6.111255    4.039359    5.142819    -2.917417    1.310810    -13.519836    1.681558    -6.839620    -0.201437    1.514130    5.782489    33.525150    -1.853937    -0.578274    -7.832884    -1.053562    22.707220    3.658442    7.353175    -43.147163    0.873828    -7.420792    4.942702    1.231698    1.646831    -9.623476    1.879783    -8.529432    -18.284868    -1.605925    9.093812    16.770712    -1.587369    8.382915    -1.147487    1.248798    -1.224437    1.289363    1.401253    14.565392    -6.664348    5.056923    4.358240    -1.080360    -10.099025    -0.302368    5.934800    0.955728    0.642889    -1.047890    -1.435092    1.479755    -7.731617    4.191333    -1.044388    8.443843    -11.565009    -0.288828    -3.137102    1.586415    -9.074988    0.162342    -2.368881    -0.298851    
6.255747    82.695129    -6.113785    4.033104    5.150971    -2.890985    1.321159    -13.515761    1.673151    -6.882710    -0.206758    1.504188    5.875959    33.551918    -1.876755    -0.592993    -7.881788    -1.062876    22.752691    3.672091    7.362404    -43.145287    0.937847    -7.453748    4.959982    1.242725    1.667949    -9.699235    1.895406    -8.530959    -18.323500    -1.599584    9.062962    16.637785    -1.450446    8.399020    -1.273619    1.165297    -1.012253    1.569477    1.354668    14.570559    -6.656287    5.049665    4.339136    -1.096677    -10.103506    -0.238923    5.928573    0.954078    0.568441    -1.045375    -1.458273    1.476413    -7.726941    4.186419    -1.044524    8.441388    -11.561790    -0.290776    -3.128217    1.584544    -9.097789    0.178339    -2.373008    -0.328316    
6.258129    82.695045    -6.115406    4.025864    5.155735    -2.860769    1.327517    -13.512526    1.663245    -6.910060    -0.204213    1.493646    5.933739    33.588558    -1.903846    -0.594544    -7.954340    -1.079484    22.778370    3.710973    7.366409    -43.142681    0.936954    -7.511424    4.982414    1.284611    1.696590    -9.778010    1.938436    -8.493314    -18.377899    -1.585204    9.021129    16.522036    -1.368218    8.437388    -1.381990    1.215731    -0.850347    1.754355    1.431369    14.675476    -6.649277    5.046038    4.307012    -1.078266    -10.113421    -0.318949    5.917306    0.967132    0.652347    -1.047563    -1.429543    1.479242    -7.718818    4.185277    -1.060317    8.441824    -11.559928    -0.309714    -3.132335    1.583266    -9.099253    0.160637    -2.386495    -0.295772    
